<mxfile host="app.diagrams.net" modified="2023-01-09T09:29:58.304Z" agent="5.0 (Macintosh; Intel Mac OS X 10_15_7) AppleWebKit/537.36 (KHTML, like Gecko) Chrome/108.0.0.0 Safari/537.36" version="20.8.1" etag="EMPyZQlHDFyZ_pQuDKuH" type="github">
  <diagram id="b5nxFVqNJ2vCoanLqaaE" name="第 1 页">
    <mxGraphModel dx="2069" dy="1965" grid="1" gridSize="10" guides="1" tooltips="1" connect="1" arrows="1" fold="1" page="1" pageScale="1" pageWidth="827" pageHeight="1169" math="0" shadow="0">
      <root>
        <mxCell id="0" />
        <mxCell id="1" parent="0" />
        <mxCell id="rlpzul18uXHuR1lMsPv8-3" value="" style="edgeStyle=orthogonalEdgeStyle;rounded=0;orthogonalLoop=1;jettySize=auto;html=1;" edge="1" parent="1" source="rlpzul18uXHuR1lMsPv8-1" target="rlpzul18uXHuR1lMsPv8-2">
          <mxGeometry relative="1" as="geometry" />
        </mxCell>
        <mxCell id="rlpzul18uXHuR1lMsPv8-1" value="&lt;pre style=&quot;background-color: rgb(255, 255, 255); font-family: &amp;quot;JetBrains Mono&amp;quot;, monospace; font-size: 11.3pt;&quot;&gt;基础常量&lt;/pre&gt;&lt;pre style=&quot;background-color:#ffffff;color:#080808;font-family:&#39;JetBrains Mono&#39;,monospace;font-size:11.3pt;&quot;&gt;&lt;span style=&quot;color:#000000;&quot;&gt;AutoParameterFillConstantsBase&lt;/span&gt;&lt;/pre&gt;" style="rounded=1;whiteSpace=wrap;html=1;" vertex="1" parent="1">
          <mxGeometry x="-30" width="310" height="70" as="geometry" />
        </mxCell>
        <mxCell id="rlpzul18uXHuR1lMsPv8-2" value="&lt;pre style=&quot;background-color:#ffffff;color:#080808;font-family:&#39;JetBrains Mono&#39;,monospace;font-size:11.3pt;&quot;&gt;&lt;span style=&quot;color:#000000;&quot;&gt;AutoParameterFillConstants&lt;/span&gt;&lt;/pre&gt;" style="whiteSpace=wrap;html=1;rounded=1;" vertex="1" parent="1">
          <mxGeometry x="-7.5" y="170" width="265" height="75" as="geometry" />
        </mxCell>
        <mxCell id="rlpzul18uXHuR1lMsPv8-6" value="" style="edgeStyle=orthogonalEdgeStyle;rounded=0;orthogonalLoop=1;jettySize=auto;html=1;" edge="1" parent="1" source="rlpzul18uXHuR1lMsPv8-4" target="rlpzul18uXHuR1lMsPv8-5">
          <mxGeometry relative="1" as="geometry" />
        </mxCell>
        <mxCell id="rlpzul18uXHuR1lMsPv8-4" value="&lt;pre style=&quot;background-color:#ffffff;color:#080808;font-family:&#39;JetBrains Mono&#39;,monospace;font-size:11.3pt;&quot;&gt;&lt;span style=&quot;color:#000000;&quot;&gt;获取指定实现的适配器&lt;/span&gt;&lt;/pre&gt;&lt;pre style=&quot;background-color:#ffffff;color:#080808;font-family:&#39;JetBrains Mono&#39;,monospace;font-size:11.3pt;&quot;&gt;&lt;span style=&quot;color:#000000;&quot;&gt;AutoParameterAdapter&lt;/span&gt;&lt;/pre&gt;" style="rounded=1;whiteSpace=wrap;html=1;" vertex="1" parent="1">
          <mxGeometry x="400" y="40" width="370" height="70" as="geometry" />
        </mxCell>
        <mxCell id="rlpzul18uXHuR1lMsPv8-8" style="edgeStyle=orthogonalEdgeStyle;rounded=0;orthogonalLoop=1;jettySize=auto;html=1;" edge="1" parent="1" source="rlpzul18uXHuR1lMsPv8-5" target="rlpzul18uXHuR1lMsPv8-7">
          <mxGeometry relative="1" as="geometry" />
        </mxCell>
        <mxCell id="rlpzul18uXHuR1lMsPv8-10" value="" style="edgeStyle=orthogonalEdgeStyle;rounded=0;orthogonalLoop=1;jettySize=auto;html=1;" edge="1" parent="1" source="rlpzul18uXHuR1lMsPv8-5" target="rlpzul18uXHuR1lMsPv8-9">
          <mxGeometry relative="1" as="geometry" />
        </mxCell>
        <mxCell id="rlpzul18uXHuR1lMsPv8-12" style="edgeStyle=orthogonalEdgeStyle;rounded=0;orthogonalLoop=1;jettySize=auto;html=1;entryX=0.5;entryY=0;entryDx=0;entryDy=0;" edge="1" parent="1" source="rlpzul18uXHuR1lMsPv8-5" target="rlpzul18uXHuR1lMsPv8-11">
          <mxGeometry relative="1" as="geometry" />
        </mxCell>
        <mxCell id="rlpzul18uXHuR1lMsPv8-5" value="&lt;pre style=&quot;background-color:#ffffff;color:#080808;font-family:&#39;JetBrains Mono&#39;,monospace;font-size:11.3pt;&quot;&gt;&lt;span style=&quot;color:#000000;&quot;&gt;AutoParameterHandler&lt;/span&gt;&lt;/pre&gt;" style="rounded=1;whiteSpace=wrap;html=1;" vertex="1" parent="1">
          <mxGeometry x="467.5" y="190" width="235" height="70" as="geometry" />
        </mxCell>
        <mxCell id="rlpzul18uXHuR1lMsPv8-7" value="&lt;pre style=&quot;background-color:#ffffff;color:#080808;font-family:&#39;JetBrains Mono&#39;,monospace;font-size:11.3pt;&quot;&gt;&lt;span style=&quot;color:#000000;&quot;&gt;IdAutoParameterFillHandler&lt;/span&gt;&lt;/pre&gt;" style="whiteSpace=wrap;html=1;rounded=1;" vertex="1" parent="1">
          <mxGeometry x="150" y="310" width="250" height="60" as="geometry" />
        </mxCell>
        <mxCell id="rlpzul18uXHuR1lMsPv8-9" value="&lt;pre style=&quot;background-color:#ffffff;color:#080808;font-family:&#39;JetBrains Mono&#39;,monospace;font-size:11.3pt;&quot;&gt;&lt;span style=&quot;color:#000000;&quot;&gt;TestEntityAutoParameterFillHandler&lt;/span&gt;&lt;/pre&gt;" style="whiteSpace=wrap;html=1;rounded=1;" vertex="1" parent="1">
          <mxGeometry x="420" y="310" width="330" height="60" as="geometry" />
        </mxCell>
        <mxCell id="rlpzul18uXHuR1lMsPv8-11" value="&lt;pre style=&quot;background-color:#ffffff;color:#080808;font-family:&#39;JetBrains Mono&#39;,monospace;font-size:11.3pt;&quot;&gt;&lt;span style=&quot;color:#000000;&quot;&gt;ZhangSanAutoParameterFillHandler&lt;/span&gt;&lt;/pre&gt;" style="whiteSpace=wrap;html=1;rounded=1;" vertex="1" parent="1">
          <mxGeometry x="770" y="310" width="340" height="60" as="geometry" />
        </mxCell>
        <mxCell id="rlpzul18uXHuR1lMsPv8-13" value="&lt;pre style=&quot;background-color: rgb(255, 255, 255); font-family: &amp;quot;JetBrains Mono&amp;quot;, monospace; font-size: 11.3pt;&quot;&gt;&lt;font color=&quot;#9e880d&quot;&gt;方法注解&lt;/font&gt;&lt;/pre&gt;&lt;pre style=&quot;background-color:#ffffff;color:#080808;font-family:&#39;JetBrains Mono&#39;,monospace;font-size:11.3pt;&quot;&gt;&lt;span style=&quot;color:#9e880d;&quot;&gt;@AutoParameterFill&lt;/span&gt;&lt;/pre&gt;" style="ellipse;whiteSpace=wrap;html=1;" vertex="1" parent="1">
          <mxGeometry x="150" y="-120" width="230" height="80" as="geometry" />
        </mxCell>
      </root>
    </mxGraphModel>
  </diagram>
</mxfile>
